<?xml version="1.0" encoding="utf-8"?>
<!-- Generator: Adobe Illustrator 20.1.0, SVG Export Plug-In . SVG Version: 6.00 Build 0)  -->
<svg width="1346px" height="189px" viewBox="0 0 1346 189" version="1.1" xmlns="http://www.w3.org/2000/svg" xmlns:xlink="http://www.w3.org/1999/xlink">
<style type="text/css">
	.st0{fill:#005CA9;}
	.st1{fill:#FFFFFF;}
	.st2{fill:none;}
	.st3{fill:#E30613;}
	.st4{fill:#005CA8;}
	.st5{fill:#E20517;}
</style>
<g>
	<rect x="23.6" y="68.3" class="st0" width="3" height="12.1"/>
	<path class="st0" d="M25.1,70c-8,0-14.6-6.5-14.6-14.6c0-8,6.5-14.6,14.6-14.6c6.2,0,11.7,3.9,13.8,9.8l-2.8,1
		c-1.6-4.6-6-7.8-10.9-7.8c-6.4,0-11.6,5.2-11.6,11.6S18.7,67,25.1,67c1.8,0,3.5-0.4,5-1.1l1.3,2.7C29.4,69.5,27.3,70,25.1,70z"/>
	<rect x="36.6" y="70.2" class="st0" width="3" height="10.1"/>
	<path class="st0" d="M38.1,72.3c-3.4,0-6.5-1.5-8.6-4.1c-1.5-1.9-2.4-4.4-2.4-6.8c0-6,4.9-11,11-11c6,0,11,4.9,11,11
		c0,3-1.3,5.9-3.5,8C43.6,71.3,40.9,72.3,38.1,72.3z M38.1,53.4c-4.4,0-8,3.6-8,8c0,1.8,0.6,3.5,1.7,5c1.5,1.9,3.8,3,6.2,3
		c2,0,4-0.8,5.4-2.2c1.6-1.5,2.5-3.6,2.5-5.8C46.1,57,42.5,53.4,38.1,53.4z"/>
</g>
<g>
	<polygon class="st0" points="1012.8,120.5 949.4,120.5 949.4,117.5 1009.8,117.5 1009.8,99.9 949.4,99.9 949.4,96.9 1012.8,96.9
		"/>
	<path class="st0" d="M1090.2,120.5h-75.1V96.9h66.7c2,0,5.9,1,6.3,4.6l0,0L1090.2,120.5z M1018.1,117.5h68.7l-1.7-15.7
		c-0.2-1.9-3.3-1.9-3.4-1.9H1018v17.6H1018.1z"/>
	<rect x="1011.3" y="99.8" class="st0" width="5.3" height="3"/>
	<rect x="1011.3" y="115.5" class="st0" width="5.3" height="3"/>
	<path class="st0" d="M989.7,120.5h-12.8v-19h12.8V120.5z M979.9,117.5h6.8v-13h-6.8V117.5z"/>
	<path class="st0" d="M1067.1,120.5h-12.8v-19h12.8V120.5z M1057.2,117.5h6.8v-13h-6.8V117.5z"/>
	<path class="st0" d="M1004.9,113.3h-10.8v-10.8h10.8V113.3z M997.1,110.3h4.8v-4.8h-4.8V110.3z"/>
	<path class="st0" d="M1081.1,113.3h-10.8v-10.8h10.8V113.3z M1073.3,110.3h4.8v-4.8h-4.8V110.3z"/>
	<path class="st0" d="M1049.8,113.3h-27.7v-10.8h27.7V113.3z M1025.1,110.3h21.7v-4.8h-21.7V110.3z"/>
	<polygon class="st0" points="972.8,113.3 949.4,113.3 949.4,110.3 969.8,110.3 969.8,105.5 949.4,105.5 949.4,102.5 972.8,102.5
		"/>
	<polygon class="st0" points="1050.4,97.8 1047.4,97.8 1047.4,94.8 1041.4,94.8 1041.4,97.8 1038.4,97.8 1038.4,91.8 1050.4,91.8
		"/>
	<rect x="1069.6" y="91.9" class="st0" width="3" height="6.5"/>
	<rect x="956.7" y="91.9" class="st0" width="3" height="6.5"/>
	<g>
		<path class="st0" d="M954,125c-2.8,0-5.1-2.3-5.1-5.1c0-0.4,0.1-0.8,0.2-1.2l0.3-1.1h9.3l0.3,1.1c0.1,0.4,0.2,0.8,0.2,1.2
			C959.1,122.7,956.8,125,954,125z M952,120.5c0.3,0.9,1.1,1.5,2,1.5s1.7-0.6,2-1.5H952z"/>
	</g>
	<g>
		<path class="st0" d="M996.5,125c-2.8,0-5.1-2.3-5.1-5.1c0-0.4,0.1-0.8,0.2-1.2l0.3-1.1h9.3l0.3,1.1c0.1,0.4,0.2,0.8,0.2,1.2
			C1001.6,122.7,999.3,125,996.5,125z M994.5,120.5c0.3,0.9,1.1,1.5,2,1.5s1.7-0.6,2-1.5H994.5z"/>
	</g>
	<g>
		<path class="st0" d="M1005.5,125c-2.8,0-5.1-2.3-5.1-5.1c0-0.4,0.1-0.8,0.2-1.2l0.3-1.1h9.3l0.3,1.1c0.1,0.4,0.2,0.8,0.2,1.2
			C1010.7,122.7,1008.4,125,1005.5,125z M1003.5,120.5c0.3,0.9,1.1,1.5,2,1.5s1.7-0.6,2-1.5H1003.5z"/>
	</g>
	<g>
		<path class="st0" d="M1022.3,125c-2.8,0-5.1-2.3-5.1-5.1c0-0.4,0.1-0.8,0.2-1.2l0.3-1.1h9.3l0.3,1.1c0.1,0.4,0.2,0.8,0.2,1.2
			C1027.5,122.7,1025.2,125,1022.3,125z M1020.3,120.5c0.3,0.9,1.1,1.5,2,1.5s1.7-0.6,2-1.5H1020.3z"/>
	</g>
	<g>
		<path class="st0" d="M1031.4,125c-2.8,0-5.1-2.3-5.1-5.1c0-0.4,0.1-0.8,0.2-1.2l0.3-1.1h9.3l0.3,1.1c0.1,0.4,0.2,0.8,0.2,1.2
			C1036.5,122.7,1034.2,125,1031.4,125z M1029.4,120.5c0.3,0.9,1.1,1.5,2,1.5s1.7-0.6,2-1.5H1029.4z"/>
	</g>
	<g>
		<path class="st0" d="M1073.7,125c-2.8,0-5.1-2.3-5.1-5.1c0-0.4,0.1-0.8,0.2-1.2l0.3-1.1h9.3l0.3,1.1c0.1,0.4,0.2,0.8,0.2,1.2
			C1078.8,122.7,1076.5,125,1073.7,125z M1071.7,120.5c0.3,0.9,1.1,1.5,2,1.5s1.7-0.6,2-1.5H1071.7z"/>
	</g>
	<g>
		<path class="st0" d="M1082.8,125c-2.8,0-5.1-2.3-5.1-5.1c0-0.4,0.1-0.8,0.2-1.2l0.3-1.1h9.3l0.3,1.1c0.1,0.4,0.2,0.8,0.2,1.2
			C1087.9,122.7,1085.6,125,1082.8,125z M1080.8,120.5c0.3,0.9,1.1,1.5,2,1.5s1.7-0.6,2-1.5H1080.8z"/>
	</g>
</g>
<g>
	<rect x="554.5" y="154.6" class="st0" width="3" height="29"/>
	<g>
		<path class="st1" d="M547.9,145.9c0,4.5,3.6,8.1,8.1,8.1c2.1,0,4.1-0.8,5.5-2.2c1.6-1.5,2.6-3.6,2.6-5.9c0-4.5-3.6-8.1-8.1-8.1
			S547.9,141.4,547.9,145.9z"/>
		<path class="st0" d="M556,155.5c-5.3,0-9.6-4.3-9.6-9.6s4.3-9.6,9.6-9.6s9.6,4.3,9.6,9.6c0,2.6-1.1,5.2-3,7
			C560.8,154.5,558.4,155.5,556,155.5z M556,139.3c-3.6,0-6.6,3-6.6,6.6s3,6.6,6.6,6.6c1.7,0,3.3-0.6,4.5-1.8c1.3-1.3,2.1-3,2.1-4.8
			C562.6,142.2,559.6,139.3,556,139.3z"/>
	</g>
	<g>
		<rect x="554.5" y="143.6" class="st0" width="3" height="6.7"/>
	</g>
	<g>
		<line class="st2" x1="552" y1="143.6" x2="559.9" y2="143.6"/>
		<rect x="552" y="142.1" class="st0" width="7.9" height="3"/>
	</g>
</g>
<g>
	<rect x="1119.1" y="66.7" class="st0" width="17.1" height="3"/>
	<rect x="1119.1" y="59.7" class="st0" width="17.1" height="3"/>
	<rect x="1119.1" y="73.8" class="st0" width="17.1" height="3"/>
	<rect x="1119.1" y="52.6" class="st0" width="17.1" height="3"/>
	<rect x="1118.7" y="38" class="st0" width="17.9" height="3"/>
	<path class="st0" d="M1138.1,46.5h-20.9V31.7h20.9V46.5z M1120.2,43.5h14.9v-8.9h-14.9V43.5z"/>
	<rect x="1131" y="45" class="st0" width="3" height="82.8"/>
	<polygon class="st0" points="1134,33.2 1131,33.2 1131,27.2 1124.3,27.2 1124.3,33.2 1121.3,33.2 1121.3,24.2 1134,24.2 	"/>
	<rect x="1121.3" y="45" class="st0" width="3" height="70.7"/>
	<rect x="1123" y="10.7" class="st3" width="3" height="11"/>
	<rect x="1129.3" y="2.8" class="st0" width="3" height="22.9"/>
</g>
<g>

		<rect x="861.9" y="60.7" transform="matrix(1 -2.971076e-03 2.971076e-03 1 -0.3077 2.5657)" class="st0" width="3" height="88.3"/>
	<polygon class="st0" points="865,155.4 843.3,155.4 843.3,152.4 862,152.4 861.7,47.5 944.8,47.2 945.1,149.6 942.1,149.6
		941.8,50.2 864.7,50.5 	"/>
	<polygon class="st0" points="836.4,152.6 814.9,152.6 814.7,68.8 836.4,68.8 836.4,71.8 817.7,71.8 817.9,149.6 836.4,149.6 	"/>
	<polygon class="st0" points="815.6,148.6 799.9,148.6 799.7,78.3 816.2,78.3 816.2,81.3 802.7,81.3 802.9,145.6 815.6,145.6 	"/>

		<rect x="814.8" y="79.9" transform="matrix(1 -3.013393e-03 3.013393e-03 1 -0.3421 2.4604)" class="st0" width="3" height="69.7"/>
	<polygon class="st0" points="904.1,47.5 901.1,47.5 901.1,42.9 892.3,42.9 892.3,47.5 889.3,47.5 889.3,39.9 904.1,39.9 	"/>
	<rect x="936.3" y="31.7" class="st0" width="3" height="15.8"/>
	<rect x="929" y="26.5" class="st0" width="3" height="21"/>
	<rect x="931.1" y="34.7" class="st0" width="6.6" height="3"/>
	<rect x="931.1" y="41.4" class="st0" width="6.6" height="3"/>
	<rect x="878.9" y="34.4" class="st0" width="3" height="13.1"/>
	<rect x="872.4" y="38.8" class="st0" width="3" height="8.7"/>
	<rect x="873.9" y="41.4" class="st0" width="6.5" height="3"/>
	<rect x="836.5" y="141.6" class="st0" width="107.1" height="3"/>
	<rect x="816.2" y="139.7" class="st0" width="15.3" height="3"/>
	<rect x="801" y="137.6" class="st0" width="14.6" height="3"/>
	<rect x="918.5" y="143.2" class="st0" width="3" height="10.7"/>
	<rect x="904.3" y="143.2" class="st0" width="3" height="10.7"/>
	<rect x="872.3" y="152.5" class="st0" width="73.2" height="3"/>
	<rect x="870.4" y="57.1" class="st0" width="3" height="8.9"/>
	<rect x="877.3" y="57.1" class="st0" width="3" height="8.9"/>
	<rect x="884.2" y="57.1" class="st0" width="3" height="8.9"/>
	<rect x="891.1" y="57.1" class="st0" width="3" height="8.9"/>
	<rect x="897.9" y="57.1" class="st0" width="3" height="8.9"/>
	<rect x="904.8" y="57.1" class="st0" width="3" height="8.9"/>
	<rect x="911.7" y="57.1" class="st0" width="3" height="8.9"/>
	<rect x="918.6" y="57.1" class="st3" width="3" height="8.9"/>
	<rect x="925.5" y="57.1" class="st0" width="3" height="8.9"/>
	<rect x="841.8" y="68.8" class="st0" width="3" height="8.9"/>
	<rect x="848.7" y="68.8" class="st3" width="3" height="8.9"/>
	<rect x="855.5" y="68.8" class="st0" width="3" height="8.9"/>
	<rect x="821.4" y="77.7" class="st3" width="3" height="8.9"/>
	<rect x="828.3" y="77.7" class="st0" width="3" height="8.9"/>
	<rect x="807.2" y="86.6" class="st0" width="3" height="8.9"/>
	<rect x="932.3" y="57.1" class="st0" width="3" height="8.9"/>
	<rect x="891.1" y="75.4" class="st0" width="3" height="8.9"/>
	<rect x="897.9" y="75.4" class="st0" width="3" height="8.9"/>
	<rect x="904.8" y="75.4" class="st0" width="3" height="8.9"/>
	<rect x="911.7" y="75.4" class="st0" width="3" height="8.9"/>
	<rect x="918.6" y="75.4" class="st0" width="3" height="8.9"/>
	<rect x="925.5" y="75.4" class="st0" width="3" height="8.9"/>
	<rect x="932.3" y="75.4" class="st0" width="3" height="8.9"/>
	<polygon class="st0" points="835.2,155.8 834.9,59.1 863.3,59.2 863.3,62.2 837.9,62.1 838.2,155.8 	"/>
	<rect x="835" y="76.6" class="st0" width="3" height="6.7"/>
	<rect x="835" y="89.1" class="st0" width="3" height="6.7"/>
	<rect x="835" y="101.8" class="st0" width="3" height="6.7"/>
</g>
<g>
	<rect x="686.6" y="82.2" class="st0" width="3" height="67.9"/>
	<polygon class="st0" points="689.6,184.3 577.5,184.3 577.5,133.5 658.9,133.5 658.9,82.2 661.9,82.2 661.9,136.5 580.5,136.5
		580.5,181.3 686.6,181.3 686.6,172.4 689.6,172.4 	"/>
	<rect x="686.6" y="81.2" class="st0" width="3" height="79.4"/>
	<rect x="672.6" y="51.6" class="st0" width="3" height="19.5"/>
	<rect x="672.6" y="19.6" class="st0" width="3" height="27.1"/>
	<polygon class="st0" points="674.2,38 666,32.7 666,25.7 669,25.7 669,31.1 674.2,34.4 679.3,31.1 679.3,25.7 682.3,25.7
		682.3,32.7 	"/>
	<polygon class="st0" points="692.5,79.7 682.7,79.7 682.7,75 679.9,75 679.9,50 682.8,50 681.9,44.9 677.4,44.9 677.4,41.9
		684.4,41.9 686.4,53 682.9,53 682.9,72 685.7,72 685.7,76.7 689.5,76.7 689.5,68.5 692.5,68.5 	"/>
	<polygon class="st0" points="665.4,79.7 656.5,79.7 656.5,68.5 659.5,68.5 659.5,76.7 662.4,76.7 662.4,72 665.2,72 665.2,53
		661.5,53 663.6,41.9 670.4,41.9 670.4,44.9 666.1,44.9 665.1,50 668.2,50 668.2,75 665.4,75 	"/>
	<g>
		<rect x="666.9" y="144.9" class="st0" width="3" height="4.9"/>
		<rect x="671.5" y="144.9" class="st0" width="3" height="4.9"/>
	</g>
	<g>
		<rect x="669" y="90.1" class="st3" width="3" height="10.4"/>
		<rect x="676.4" y="90.1" class="st0" width="3" height="10.4"/>
	</g>
	<g>
		<rect x="642" y="144.9" class="st0" width="3" height="4.9"/>
		<rect x="646.6" y="144.9" class="st0" width="3" height="4.9"/>
	</g>
	<g>
		<rect x="615.5" y="144.9" class="st0" width="3" height="4.9"/>
		<rect x="620.1" y="144.9" class="st0" width="3" height="4.9"/>
	</g>
	<g>
		<rect x="589.5" y="145" class="st3" width="3" height="5.5"/>
		<rect x="593.9" y="145" class="st0" width="3" height="5.5"/>
	</g>
	<path class="st0" d="M598,177.7h-9.4V159c0-2.6,2.1-4.7,4.7-4.7s4.7,2.1,4.7,4.7V177.7z M591.6,174.7h3.4V159
		c0-0.9-0.8-1.7-1.7-1.7s-1.7,0.8-1.7,1.7V174.7z"/>
	<path class="st0" d="M623.7,177.7h-9.4V159c0-2.6,2.1-4.7,4.7-4.7c2.6,0,4.7,2.1,4.7,4.7V177.7z M617.3,174.7h3.4V159
		c0-0.9-0.8-1.7-1.7-1.7s-1.7,0.8-1.7,1.7V174.7z"/>
	<path class="st0" d="M650.5,177.7h-9.4V159c0-2.6,2.1-4.7,4.7-4.7s4.7,2.1,4.7,4.7V177.7z M644.1,174.7h3.4V159
		c0-0.9-0.8-1.7-1.7-1.7s-1.7,0.8-1.7,1.7V174.7z"/>
	<path class="st0" d="M675.6,177.7h-9.4V159c0-2.6,2.1-4.7,4.7-4.7c2.6,0,4.7,2.1,4.7,4.7V177.7z M669.2,174.7h3.4V159
		c0-0.9-0.8-1.7-1.7-1.7s-1.7,0.8-1.7,1.7V174.7z"/>
	<rect x="670.9" y="21.9" class="st0" width="6.6" height="3"/>
	<rect x="677.5" y="27.5" class="st0" width="6.6" height="3"/>
	<rect x="664.2" y="27.5" class="st0" width="6.6" height="3"/>
</g>
<path class="st0" d="M569.3,184.5H436.2c-20.1,0-36.4-16.3-36.4-36.4s16.3-36.4,36.4-36.4h68.4v3h-68.4c-18.4,0-33.4,15-33.4,33.4
	s15,33.4,33.4,33.4h133.1L569.3,184.5L569.3,184.5z"/>
<g>
	<polygon class="st0" points="99.9,177.8 20.6,177.8 20.6,135.5 23.6,135.5 23.6,174.8 99.9,174.8 	"/>
	<polygon class="st0" points="139.9,177.8 111.6,177.8 111.6,135.5 114.6,135.5 114.6,174.8 139.9,174.8 	"/>
	<polygon class="st0" points="120.4,137 50.3,137 50.3,134 115.5,134 111.6,126.4 111.6,123.6 104.6,114.9 92.7,114.9 92.7,111.9
		106,111.9 114.6,122.6 114.6,125.6 	"/>
	<polygon class="st0" points="43,137 14.8,137 20.6,125.6 20.6,122.6 29.1,111.9 60.9,111.9 60.9,114.9 30.6,114.9 23.6,123.6
		23.6,126.4 19.7,134 43,134 	"/>
	<rect x="74.3" y="111.9" class="st0" width="11.3" height="3"/>
	<polygon class="st0" points="94.3,116.2 91.3,116.2 91.3,105.4 88,105.4 88,116.2 85,116.2 85,102.4 94.3,102.4 	"/>
	<polygon class="st0" points="47.6,113.4 44.6,113.4 44.6,105.4 42,105.4 42,113.4 39,113.4 39,102.4 47.6,102.4 	"/>
	<rect x="73.6" y="99.6" class="st0" width="3" height="17.3"/>
	<rect x="58.6" y="99.6" class="st0" width="3" height="17.3"/>
	<polygon class="st0" points="58.8,103.8 56.4,101.9 67.6,88.2 78.8,101.9 76.4,103.8 67.6,93 	"/>
	<path class="st3" d="M67.6,113.9c-2.6,0-4.7-2.1-4.7-4.7s2.1-4.7,4.7-4.7s4.7,2.1,4.7,4.7S70.2,113.9,67.6,113.9z M67.6,107.6
		c-0.9,0-1.7,0.7-1.7,1.7s0.7,1.7,1.7,1.7s1.7-0.7,1.7-1.7S68.5,107.6,67.6,107.6z"/>
	<rect x="72.4" y="162.9" class="st0" width="3" height="14.6"/>
	<rect x="60.7" y="162.9" class="st0" width="3" height="12.2"/>
	<rect x="66.1" y="87.2" class="st0" width="3" height="4.1"/>
	<path class="st0" d="M75.4,163.5h-3c0-2.4-2-4.4-4.4-4.4s-4.4,2-4.4,4.4h-3c0-4.1,3.3-7.4,7.4-7.4S75.4,159.4,75.4,163.5z"/>
	<path class="st0" d="M74.9,153.8H61.1V140h13.8V153.8z M64.1,150.8h7.8V143h-7.8V150.8z"/>
	<polygon class="st0" points="43.9,154.8 34.2,154.8 34.2,140 49.6,140 49.6,147.4 46.6,147.4 46.6,143 37.2,143 37.2,151.8
		43.9,151.8 	"/>
	<polygon class="st0" points="40.6,172.4 34.2,172.4 34.2,157.6 49.6,157.6 49.6,170.8 46.6,170.8 46.6,160.6 37.2,160.6
		37.2,169.4 40.6,169.4 	"/>
	<polygon class="st0" points="95.7,154.8 85.9,154.8 85.9,140 101.4,140 101.4,147.4 98.4,147.4 98.4,143 88.9,143 88.9,151.8
		95.7,151.8 	"/>
	<polygon class="st0" points="92.4,172.4 85.9,172.4 85.9,157.6 101.4,157.6 101.4,170.8 98.4,170.8 98.4,160.6 88.9,160.6
		88.9,169.4 92.4,169.4 	"/>
	<rect x="54.3" y="140" class="st0" width="3" height="32.4"/>
	<rect x="27.2" y="140" class="st0" width="3" height="32.4"/>
	<rect x="78.4" y="140" class="st0" width="3" height="32.4"/>
	<rect x="105.5" y="140" class="st0" width="3" height="32.4"/>
	<rect x="62.2" y="118.1" class="st0" width="10.9" height="3"/>
</g>
<g>
	<path class="st0" d="M587.8,104h-18.7V89.1h18.7V104z M572.1,101h12.7v-8.9h-12.7V101z"/>
	<rect x="488" y="95.1" class="st0" width="3" height="7.4"/>
	<rect x="551.2" y="79.3" class="st0" width="3" height="5.1"/>
	<rect x="557.1" y="79.3" class="st0" width="3" height="5.1"/>
	<rect x="563.1" y="79.3" class="st0" width="3" height="5.1"/>
	<rect x="569.1" y="79.3" class="st0" width="3" height="5.1"/>
	<rect x="497.1" y="95.1" class="st0" width="3" height="7.4"/>
	<rect x="506.2" y="95.1" class="st0" width="3" height="7.4"/>
	<rect x="515.4" y="95.1" class="st0" width="3" height="7.4"/>
	<rect x="524.5" y="95.1" class="st0" width="3" height="7.4"/>
	<rect x="533.6" y="95.1" class="st0" width="3" height="7.4"/>
	<polygon class="st0" points="592.4,104 559.9,104 559.9,101 589.4,101 589.4,75.4 583.8,75.4 583.8,65.8 586.8,65.8 586.8,72.4
		592.4,72.4 	"/>
	<polygon class="st0" points="552.7,104 545.4,104 545.4,72.4 582.3,72.4 582.3,75.4 548.4,75.4 548.4,101 552.7,101 	"/>
	<circle class="st4" cx="532.4" cy="47.3" r="1.4"/>
	<circle class="st4" cx="524.3" cy="47.3" r="1.4"/>
	<circle class="st4" cx="516.2" cy="47.3" r="1.4"/>
	<circle class="st4" cx="508.2" cy="47.3" r="1.4"/>
	<circle class="st4" cx="532.4" cy="53.4" r="1.4"/>
	<circle class="st5" cx="524.3" cy="53.4" r="1.4"/>
	<circle class="st4" cx="516.2" cy="53.4" r="1.4"/>
	<circle class="st4" cx="508.2" cy="53.4" r="1.4"/>
	<circle class="st4" cx="532.4" cy="59.7" r="1.4"/>
	<circle class="st4" cx="524.3" cy="59.7" r="1.4"/>
	<circle class="st4" cx="516.2" cy="59.7" r="1.4"/>
	<circle class="st4" cx="508.2" cy="59.7" r="1.4"/>
	<circle class="st5" cx="489.6" cy="47.3" r="1.4"/>
	<circle class="st4" cx="481.6" cy="47.3" r="1.4"/>
	<circle class="st4" cx="473.5" cy="47.3" r="1.4"/>
	<circle class="st4" cx="489.6" cy="53.4" r="1.4"/>
	<circle class="st4" cx="481.6" cy="53.4" r="1.4"/>
	<circle class="st4" cx="473.5" cy="53.4" r="1.4"/>
	<circle class="st4" cx="465.4" cy="53.4" r="1.4"/>
	<circle class="st4" cx="489.6" cy="59.7" r="1.4"/>
	<circle class="st4" cx="481.6" cy="59.7" r="1.4"/>
	<circle class="st4" cx="473.5" cy="59.7" r="1.4"/>
	<circle class="st4" cx="465.4" cy="59.7" r="1.4"/>
	<polygon class="st0" points="488.2,21.6 485.2,21.6 485.2,18.3 483.5,16.7 485.6,14.6 488.2,17.1 	"/>
	<polygon class="st0" points="479.1,93.5 462.3,93.5 462.3,90.5 476.1,90.5 476.1,81.9 459.3,81.9 459.3,78.9 479.1,78.9 	"/>
	<rect x="461.5" y="92" class="st0" width="3" height="10.6"/>
	<rect x="473.8" y="92" class="st0" width="3" height="10.6"/>
	<path class="st0" d="M548.4,104h-100v-3h97V72.4h16.8c0.2-1.6,0.2-3.2,0.2-4.9c0-28-22.8-50.7-50.7-50.7S461,39.6,461,67.5
		c0,4.2,0.5,8.4,1.6,12.5l0.5,1.9h-27.7v-3h23.9c-0.8-3.7-1.2-7.6-1.2-11.4c0-29.6,24.1-53.7,53.7-53.7c29.6,0,53.7,24.1,53.7,53.7
		c0,2.2-0.1,4.4-0.4,6.5l-0.2,1.3h-16.5L548.4,104L548.4,104z"/>
	<rect x="441.2" y="106.3" class="st3" width="31.7" height="3"/>
</g>
<rect x="948.1" y="126.5" class="st0" width="198.8" height="3"/>
<path class="st0" d="M1172,172.6h-39.5c-6.8,0-12.3-5.5-12.3-12.3s5.5-12.3,12.3-12.3h14.4c5.1,0,9.3-4.2,9.3-9.3s-4.2-9.3-9.3-9.3
	v-3c6.8,0,12.3,5.5,12.3,12.3s-5.5,12.3-12.3,12.3h-14.4c-5.1,0-9.3,4.2-9.3,9.3s4.2,9.3,9.3,9.3h39.5V172.6z"/>
<polygon class="st0" points="1166.5,172.1 1161,163.2 1152.7,160.4 1144.7,165.2 1142,171.4 1139.3,170.2 1142.4,163.2
	1152.4,157.1 1163,160.7 1169,170.5 "/>
<path class="st0" d="M721.7,184.3h-32.5v-3h32.5c6.2,0,11.3-5.1,11.3-11.3v-2.3c0-4.9,4-8.9,8.9-8.9h164v3h-164
	c-3.2,0-5.9,2.6-5.9,5.9v2.3C735.9,177.9,729.5,184.3,721.7,184.3z"/>
<path class="st0" d="M720.5,178v-3c3.2,0,5.9-2.6,5.9-5.9v-2.3c0-7.9,6.4-14.3,14.3-14.3h61.1v3h-61.1c-6.2,0-11.3,5.1-11.3,11.3
	v2.3C729.4,174,725.4,178,720.5,178z"/>
<rect x="1099.6" y="119.8" class="st0" width="25.2" height="3"/>
<path class="st0" d="M992.8,51h-16.6c-5.4,0-9.8-4.4-9.8-9.8c0-4.9,3.7-9,8.4-9.7c0.7-4.7,4.8-8.4,9.7-8.4s9,3.7,9.7,8.4
	c4.7,0.7,8.4,4.8,8.4,9.7C1002.6,46.6,998.2,51,992.8,51z M976.2,34.4c-3.8,0-6.8,3.1-6.8,6.8s3.1,6.8,6.8,6.8h16.6
	c3.8,0,6.8-3.1,6.8-6.8s-3.1-6.8-6.8-6.8h-1.5v-1.5c0-3.8-3.1-6.8-6.8-6.8s-6.8,3.1-6.8,6.8v1.5H976.2z"/>
<path class="st0" d="M66.8,37.5H55c-4.1,0-7.4-3.3-7.4-7.4c0-3.6,2.6-6.6,6-7.3c0.6-3.4,3.7-6,7.3-6c3.6,0,6.6,2.6,7.3,6
	c3.4,0.6,6,3.7,6,7.3C74.3,34.1,70.9,37.5,66.8,37.5z M55,25.6c-2.4,0-4.4,2-4.4,4.4s2,4.4,4.4,4.4h11.8c2.4,0,4.4-2,4.4-4.4
	s-2-4.4-4.4-4.4h-1.5v-1.5c0-2.4-2-4.4-4.4-4.4s-4.4,2-4.4,4.4v1.5C56.5,25.6,55,25.6,55,25.6z"/>
<path class="st0" d="M1065.6,73.3h-23.2c-7.2,0-13.1-5.9-13.1-13.1c0-6.7,5.1-12.3,11.7-13c0.7-6.5,6.3-11.7,13-11.7
	s12.3,5.1,13,11.7c6.5,0.7,11.7,6.3,11.7,13C1078.7,67.4,1072.8,73.3,1065.6,73.3z M1042.4,50.1c-5.6,0-10.1,4.5-10.1,10.1
	s4.5,10.1,10.1,10.1h23.2c5.6,0,10.1-4.5,10.1-10.1s-4.5-10.1-10.1-10.1h-1.5v-1.5c0-5.6-4.5-10.1-10.1-10.1s-10.1,4.5-10.1,10.1
	v1.5H1042.4z"/>
<g>
	<path class="st0" d="M617.8,58.4l-2.1-2.1c0.6-0.6,0.9-1.3,0.9-2.1s-0.3-1.6-0.9-2.1l2.1-2.1c1.1,1.1,1.8,2.6,1.8,4.3
		C619.6,55.8,619,57.3,617.8,58.4z"/>
	<path class="st0" d="M617.8,58.4l-2.1-2.1c1.1-1.1,2.6-1.8,4.3-1.8c1.6,0,3.1,0.6,4.3,1.8l-2.1,2.1C620.9,57.3,619,57.3,617.8,58.4
		z"/>
	<path class="st0" d="M631.8,57.4l-2.7-1.4c1.4-2.7,0.3-6-2.4-7.3l1.4-2.7C632.3,48.1,633.9,53.2,631.8,57.4z"/>
	<path class="st0" d="M631.8,57.4l-2.7-1.4c2.1-4.2,7.2-5.8,11.4-3.7l-1.4,2.7C636.5,53.6,633.2,54.7,631.8,57.4z"/>
</g>
<rect x="941.3" y="172.7" class="st3" width="10.2" height="3"/>
<rect x="376.6" y="69.6" class="st3" width="10.2" height="3"/>
<rect x="358.7" y="125.9" class="st3" width="10.2" height="3"/>
<rect x="1088.1" y="174.1" class="st3" width="10.2" height="3"/>
<rect x="426.8" y="136.9" class="st3" width="10.2" height="3"/>
<rect x="1087.2" y="148" class="st0" width="10.2" height="3"/>
<rect x="1101.6" y="158.9" class="st0" width="10.2" height="3"/>
<rect x="1006.2" y="140" class="st0" width="10.2" height="3"/>
<rect x="912.4" y="168.3" class="st0" width="10.2" height="3"/>
<rect x="532.4" y="121.3" class="st0" width="10.2" height="3"/>
<rect x="585.9" y="115.5" class="st0" width="10.2" height="3"/>
<rect x="338.8" y="138.6" class="st0" width="10.2" height="3"/>
<rect x="769.1" y="172.7" class="st0" width="10.2" height="3"/>
<rect x="20" y="99.5" class="st0" width="10.2" height="3"/>
<rect x="454.2" y="127.2" class="st0" width="10.2" height="3"/>
<g>
	<path class="st0" d="M21,114c-9.7,0-17.6-7.9-17.6-17.6S11.3,78.8,21,78.8h99.4v3H21c-8,0-14.6,6.5-14.6,14.6S12.9,111,21,111V114z
		"/>
	<g>
		<path class="st0" d="M241.8,82.2c-3.1-6.4-9.4-11.9-18.4-16c-9.1-4.1-19.9-6.3-31.3-6.3s-22.3,2.2-31.3,6.3
			c-8.4,3.8-14.5,8.9-17.8,14.9l-0.4,0.8h-18.9v-3h17.1c3.6-6.2,10.1-11.5,18.7-15.4c9.4-4.3,20.7-6.5,32.6-6.5s23.1,2.3,32.6,6.5
			c9.6,4.4,16.5,10.4,19.8,17.4L241.8,82.2z"/>
		<path class="st0" d="M248,82.2l-2.7-1.3c3.4-7.1,10.2-13.1,19.8-17.4c9.4-4.3,20.7-6.5,32.6-6.5s23.1,2.3,32.6,6.5
			c8.6,3.9,15.1,9.2,18.7,15.4h76.2v3h-77.9l-0.4-0.8c-3.2-5.9-9.4-11.1-17.8-14.9c-9.1-4.1-19.9-6.3-31.3-6.3s-22.3,2.2-31.3,6.3
			C257.4,70.3,251.1,75.8,248,82.2z"/>
		<path class="st0" d="M388.3,87.3h-44.9l-0.4-0.8c-6.8-12.5-25-20.8-45.3-20.8c-19.9,0-37.3,7-42.5,17.1l-2.7-1.4
			c5.6-11,24.2-18.7,45.1-18.7c21.2,0,39.7,8.5,47.5,21.6h43.1L388.3,87.3L388.3,87.3z"/>
		<path class="st0" d="M146.6,87.3H76v-3h68.8c7.7-13.2,26.3-21.6,47.5-21.6c20.9,0,39.5,7.7,45.1,18.7l-2.7,1.4
			c-5.1-10.1-22.6-17.1-42.5-17.1c-20.3,0-38.5,8.4-45.3,20.8L146.6,87.3z"/>
	</g>
	<polygon class="st0" points="256.4,89.1 253.4,89.1 253.4,84.6 245,82.4 236.6,84.6 236.6,88.1 233.6,88.1 233.6,82.3 245,79.3
		256.4,82.3 	"/>
	<rect x="251.6" y="51.2" class="st0" width="3" height="21.9"/>
	<rect x="235.4" y="51.2" class="st0" width="3" height="22"/>
	<rect x="267.8" y="51.6" class="st0" width="3" height="11.8"/>
	<rect x="219.2" y="51.4" class="st0" width="3" height="12.1"/>
	<rect x="186.7" y="52.4" class="st0" width="3" height="6.1"/>
	<rect x="203" y="51.8" class="st0" width="3" height="7.5"/>
	<rect x="154.3" y="54.4" class="st0" width="3" height="12.6"/>
	<rect x="170.5" y="53.3" class="st0" width="3" height="7.7"/>
	<rect x="138.1" y="71.1" class="st0" width="3" height="9.2"/>
	<rect x="138.1" y="55.6" class="st0" width="3" height="11.9"/>
	<rect x="284" y="52" class="st0" width="3" height="7.4"/>
	<rect x="300.2" y="52.5" class="st0" width="3" height="6"/>
	<rect x="316.4" y="53.3" class="st0" width="3" height="7.5"/>
	<rect x="332.6" y="62.8" class="st0" width="3" height="4.4"/>
	<rect x="332.6" y="54.7" class="st0" width="3" height="3.6"/>
	<rect x="348.8" y="55.6" class="st0" width="3" height="24.8"/>
	<polygon class="st0" points="249.4,65.7 242.1,65.7 242.1,62.7 246.4,62.7 246.4,59.5 249.4,59.5 	"/>
	<path class="st0" d="M330.5,111.5l-3-0.3l0.3-3.8l-31-1.9c0.4,1.1,1.4,2,2.7,2.6l-1.3,2.7c-3.1-1.5-4.9-4.2-4.7-7.1l0.1-1.5
		l37.4,2.3L330.5,111.5z"/>

		<rect x="308.8" y="96.8" transform="matrix(6.055192e-02 -0.9982 0.9982 6.055192e-02 198.6011 407.6099)" class="st0" width="14" height="3"/>
	<polygon class="st0" points="328.3,101.6 319.9,101.2 320,98.2 323.7,98.4 316.1,80.5 303.2,97.2 314.5,97.9 314.3,100.9
		297.4,99.9 316.8,74.6 	"/>
	<g>
		<rect x="168.4" y="43.6" class="st0" width="3" height="3.3"/>
		<rect x="205.9" y="41.8" class="st0" width="3" height="3.3"/>
		<rect x="243.5" y="41.3" class="st0" width="3" height="3.3"/>
		<rect x="281" y="41.8" class="st0" width="3" height="3.3"/>
		<rect x="318.5" y="43.6" class="st0" width="3" height="3.3"/>
		<g>
			<path class="st0" d="M113.6,60.1l-0.4-3c40.3-4.8,85.9-7.4,131.8-7.4s91.5,2.6,131.8,7.4l-0.4,3c-40.2-4.8-85.6-7.4-131.4-7.4
				C199.2,52.7,153.8,55.2,113.6,60.1z"/>
			<path class="st0" d="M376.4,53.5c-40.2-4.8-85.6-7.4-131.4-7.4s-91.2,2.6-131.4,7.4l-0.4-3c40.3-4.8,85.9-7.4,131.8-7.4
				s91.5,2.6,131.8,7.4L376.4,53.5z"/>
			<path class="st0" d="M114.9,67.1h-3v-9.9l1.3-0.2c40.3-4.8,85.9-7.4,131.8-7.4s91.5,2.6,131.8,7.4l-0.4,3
				c-40.2-4.8-85.6-7.4-131.4-7.4c-45.3,0-90.2,2.5-130.1,7.2C114.9,59.8,114.9,67.1,114.9,67.1z"/>
		</g>
	</g>
	<path class="st0" d="M307.6,91.8c-3.7,0-5.6-1.3-7.3-2.4c-1.5-1-2.8-1.9-5.6-1.9s-4.1,0.9-5.6,1.9c-1.7,1.1-3.6,2.4-7.3,2.4
		c-3.7,0-5.6-1.3-7.3-2.4c-1.5-1-2.8-1.9-5.6-1.9c-2.8,0-4.1,0.9-5.6,1.9c-1.7,1.1-3.6,2.4-7.3,2.4c-3.7,0-5.6-1.3-7.3-2.4
		c-1.5-1-2.8-1.9-5.6-1.9s-4.1,0.9-5.6,1.9c-1.7,1.1-3.6,2.4-7.3,2.4s-5.6-1.3-7.3-2.4c-1.5-1-2.8-1.9-5.6-1.9s-4.1,0.9-5.6,1.9
		c-1.7,1.1-3.6,2.4-7.3,2.4s-5.6-1.3-7.3-2.4c-1.5-1-2.8-1.9-5.6-1.9s-4.1,0.9-5.6,1.9c-1.7,1.1-3.6,2.4-7.3,2.4s-5.6-1.3-7.3-2.4
		c-1.5-1-2.8-1.9-5.6-1.9s-4.1,0.9-5.6,1.9c-1.7,1.1-3.6,2.4-7.3,2.4v-3c2.8,0,4.1-0.9,5.6-1.9c1.7-1.1,3.6-2.4,7.3-2.4
		s5.6,1.3,7.3,2.4c1.5,1,2.8,1.9,5.6,1.9s4.1-0.9,5.6-1.9c1.7-1.1,3.6-2.4,7.3-2.4s5.6,1.3,7.3,2.4c1.5,1,2.8,1.9,5.6,1.9
		s4.1-0.9,5.6-1.9c1.7-1.1,3.6-2.4,7.3-2.4s5.6,1.3,7.3,2.4c1.5,1,2.8,1.9,5.6,1.9s4.1-0.9,5.6-1.9c1.7-1.1,3.6-2.4,7.3-2.4
		s5.6,1.3,7.3,2.4c1.5,1,2.8,1.9,5.6,1.9c2.8,0,4.1-0.9,5.6-1.9c1.7-1.1,3.6-2.4,7.3-2.4c3.7,0,5.6,1.3,7.3,2.4
		c1.5,1,2.8,1.9,5.6,1.9c2.8,0,4.1-0.9,5.6-1.9c1.7-1.1,3.6-2.4,7.3-2.4c3.7,0,5.6,1.3,7.3,2.4c1.5,1,2.8,1.9,5.6,1.9V91.8z"/>
	<path class="st0" d="M363.8,115c-3.7,0-5.6-1.3-7.3-2.4c-1.5-1-2.8-1.9-5.6-1.9c-2.8,0-4.1,0.9-5.6,1.9c-1.7,1.1-3.6,2.4-7.3,2.4
		c-3.7,0-5.6-1.3-7.3-2.4c-1.5-1-2.8-1.9-5.6-1.9c-2.8,0-4.1,0.9-5.6,1.9c-1.7,1.1-3.6,2.4-7.3,2.4c-3.7,0-5.6-1.3-7.3-2.4
		c-1.5-1-2.8-1.9-5.6-1.9c-2.8,0-4.1,0.9-5.6,1.9c-1.7,1.1-3.6,2.4-7.3,2.4c-3.7,0-5.6-1.3-7.3-2.4c-1.5-1-2.8-1.9-5.6-1.9v-3
		c3.7,0,5.6,1.3,7.3,2.4c1.5,1,2.8,1.9,5.6,1.9c2.8,0,4.1-0.9,5.6-1.9c1.7-1.1,3.6-2.4,7.3-2.4s5.6,1.3,7.3,2.4
		c1.5,1,2.8,1.9,5.6,1.9s4.1-0.9,5.6-1.9c1.7-1.1,3.6-2.4,7.3-2.4s5.6,1.3,7.3,2.4c1.5,1,2.8,1.9,5.6,1.9c2.8,0,4.1-0.9,5.6-1.9
		c1.7-1.1,3.6-2.4,7.3-2.4c3.7,0,5.6,1.3,7.3,2.4c1.5,1,2.8,1.9,5.6,1.9V115z"/>
</g>
<g>
	<g>
		<g>
			<rect x="1247.4" y="33" class="st0" width="4.9" height="3"/>
			<rect x="1265.8" y="33" class="st0" width="4.9" height="3"/>
			<rect x="1257.5" y="41.2" class="st0" width="3" height="4.9"/>
			<rect x="1257.5" y="22.8" class="st0" width="3" height="4.9"/>

				<rect x="1251.1" y="25.4" transform="matrix(0.7071 -0.7072 0.7072 0.7071 347.2445 893.9705)" class="st0" width="3" height="4.9"/>

				<rect x="1264" y="38.5" transform="matrix(0.7071 -0.7071 0.7071 0.7071 341.6811 906.8496)" class="st0" width="3" height="4.9"/>

				<rect x="1263.1" y="26.5" transform="matrix(0.7071 -0.7071 0.7071 0.7071 350.8865 903.0844)" class="st0" width="4.9" height="3"/>

				<rect x="1250.1" y="39.4" transform="matrix(0.7071 -0.7071 0.7071 0.7071 337.9159 897.6443)" class="st0" width="4.9" height="3"/>
		</g>
		<path class="st0" d="M1259,39.3c-2.7,0-4.9-2.2-4.9-4.9s2.2-4.9,4.9-4.9c2.7,0,4.9,2.2,4.9,4.9C1263.9,37.2,1261.7,39.3,1259,39.3
			z M1259,32.6c-1,0-1.9,0.9-1.9,1.9s0.9,1.9,1.9,1.9s1.9-0.9,1.9-1.9S1260.1,32.6,1259,32.6z"/>
	</g>
	<g>
		<polygon class="st0" points="1247.7,96.5 1251,83.5 1253.9,84.2 1251.9,92.2 1256.7,90.7 1266,80.8 1268.2,82.9 1258.3,93.4 		"/>
		<polygon class="st0" points="1248.3,78.8 1242.3,73.2 1252.9,70.1 1262.6,72.5 1261.8,75.4 1253,73.2 1248.2,74.6 1250.3,76.6
			"/>
		<path class="st0" d="M1248.8,88.8l-17.2-2l-6-5.6l-1.8,0.5l-0.8-2.9l9.9-2.9l6,3.2l36.4-10.6l10.4,2.2l0.3,0.9
			c0.9,3.2-0.9,6.5-4.1,7.4l-15,4.4l-0.8-2.9l15-4.4c1.3-0.4,2.1-1.6,2.1-2.9l-7.8-1.7l-36.9,10.8l-6-3.2l-3.5,1l4,3.7l15.6,1.8
			l2.8-0.8l0.8,2.9L1248.8,88.8z"/>
	</g>
	<g>
		<path class="st0" d="M1242.4,28.4c-1.5-1.9-1.4-4-1.4-4.3c0.2-2.1,1.1-4,2.7-5.4s3.6-2,5.7-1.9c0.8,0.1,1.6,0.2,2.3,0.5
			c1.6-2.3,4.3-3.7,7.2-3.5c2.9,0.2,5.5,1.6,7,3.7c0.6,0.9,1,1.8,1.2,2.9l-2.9,0.6c-0.1-0.6-0.4-1.2-0.7-1.7c-1-1.4-2.7-2.3-4.7-2.4
			c-2.2-0.1-4.2,1.1-5.1,3.1l-0.7,1.7l-1.5-1c-0.7-0.4-1.5-0.7-2.3-0.8c-1.3-0.1-2.6,0.3-3.5,1.2c-1,0.8-1.6,2-1.7,3.3l0,0
			c0,0,0,1.2,0.7,2.2L1242.4,28.4z"/>
		<path class="st0" d="M1259,62.3c-2.9,0-5.3-2.4-5.3-5.3c0-1.3,0.5-2.5,1.3-3.5c1-1.2,2.5-1.8,4-1.8c2.9,0,5.3,2.4,5.3,5.3
			S1262,62.3,1259,62.3z M1259,54.6c-0.7,0-1.3,0.3-1.8,0.8c-0.4,0.4-0.6,1-0.6,1.5c0,1.3,1,2.3,2.3,2.3s2.3-1,2.3-2.3
			S1260.3,54.6,1259,54.6z"/>
		<path class="st0" d="M1264.9,70.1c-1.1,0-2.2-0.4-3.1-1.2c-0.8-0.8-1.3-1.9-1.3-3.1c0-1.1,0.4-2.1,1-2.9c0.8-1,2-1.5,3.3-1.5
			c0,0,0,0,0.1,0c2.4,0,4.3,1.9,4.4,4.3l0,0c0,1.2-0.4,2.3-1.2,3.1C1267.2,69.6,1266.1,70.1,1264.9,70.1L1264.9,70.1z M1264.9,64.4
			L1264.9,64.4c-0.4,0-0.8,0.2-1,0.5c-0.1,0.2-0.3,0.5-0.3,0.9s0.2,0.7,0.4,1c0.3,0.3,0.6,0.4,1,0.4s0.7-0.2,1-0.4
			c0.3-0.3,0.4-0.6,0.4-1l0,0C1266.2,65,1265.6,64.4,1264.9,64.4z"/>
		<path class="st0" d="M1268.2,51.1h-21.9c-5.2,0-8.3-4.2-8.6-8.4c-0.1-1.6,0.2-3.1,0.8-4.5c-1.9-1.5-2.9-3.8-2.7-6.2
			c0.2-2.6,1.8-4.9,4.2-6l1.3,2.7c-1.4,0.6-2.3,2-2.5,3.5c-0.1,1.7,0.8,3.3,2.4,4.1l1.5,0.7l-0.9,1.4c-0.8,1.2-1.1,2.6-1,4
			c0.2,2.7,2,5.7,5.6,5.7h21.9c7.1,0,13-5.8,13-13s-5.8-13-13-13c-1.8,0-3.5,0.4-5.1,1.1l-1.2-2.8c2-0.9,4.1-1.3,6.3-1.3
			c8.8,0,16,7.2,16,16S1277,51.1,1268.2,51.1z"/>
	</g>
</g>
<path class="st0" d="M1326.7,172.4c-3.7,0-5.6-1.3-7.3-2.4c-1.5-1-2.8-1.9-5.6-1.9c-2.8,0-4.1,0.9-5.6,1.9c-1.7,1.1-3.6,2.4-7.3,2.4
	c-3.7,0-5.6-1.3-7.3-2.4c-1.5-1-2.8-1.9-5.6-1.9c-2.8,0-4.1,0.9-5.6,1.9c-1.7,1.1-3.6,2.4-7.3,2.4c-3.7,0-5.6-1.3-7.3-2.4
	c-1.5-1-2.8-1.9-5.6-1.9c-2.8,0-4.1,0.9-5.6,1.9c-1.7,1.1-3.6,2.4-7.3,2.4c-3.7,0-5.6-1.3-7.3-2.4c-1.5-1-2.8-1.9-5.6-1.9
	c-2.8,0-4.1,0.9-5.6,1.9c-1.7,1.1-3.6,2.4-7.3,2.4c-3.7,0-5.6-1.3-7.3-2.4c-1.5-1-2.8-1.9-5.6-1.9c-2.8,0-4.1,0.9-5.6,1.9
	c-1.7,1.1-3.6,2.4-7.3,2.4s-5.6-1.3-7.3-2.4c-1.5-1-2.8-1.9-5.6-1.9c-2.8,0-4.1,0.9-5.6,1.9c-1.7,1.1-3.6,2.4-7.3,2.4v-3
	c2.8,0,4.1-0.9,5.6-1.9c1.7-1.1,3.6-2.4,7.3-2.4c3.7,0,5.6,1.3,7.3,2.4c1.5,1,2.8,1.9,5.6,1.9c2.8,0,4.1-0.9,5.6-1.9
	c1.7-1.1,3.6-2.4,7.3-2.4c3.7,0,5.6,1.3,7.3,2.4c1.5,1,2.8,1.9,5.6,1.9c2.8,0,4.1-0.9,5.6-1.9c1.7-1.1,3.6-2.4,7.3-2.4
	c3.7,0,5.6,1.3,7.3,2.4c1.5,1,2.8,1.9,5.6,1.9s4.1-0.9,5.6-1.9c1.7-1.1,3.6-2.4,7.3-2.4c3.7,0,5.6,1.3,7.3,2.4
	c1.5,1,2.8,1.9,5.6,1.9c2.8,0,4.1-0.9,5.6-1.9c1.7-1.1,3.6-2.4,7.3-2.4c3.7,0,5.6,1.3,7.3,2.4c1.5,1,2.8,1.9,5.6,1.9
	c2.8,0,4.1-0.9,5.6-1.9c1.7-1.1,3.6-2.4,7.3-2.4c3.7,0,5.6,1.3,7.3,2.4c1.5,1,2.8,1.9,5.6,1.9c2.8,0,4.1-0.9,5.6-1.9
	c1.7-1.1,3.6-2.4,7.3-2.4v3c-2.8,0-4.1,0.9-5.6,1.9C1332.3,171.1,1330.4,172.4,1326.7,172.4z"/>
<g>
	<g>
		<rect x="1175.6" y="118.8" class="st0" width="6.1" height="3"/>
		<rect x="1211.7" y="118.8" class="st0" width="6.1" height="3"/>

			<rect x="1176.2" y="123.5" transform="matrix(0.9672 -0.2542 0.2542 0.9672 6.9648 303.804)" class="st0" width="5.6" height="3"/>

			<rect x="1211.7" y="114.2" transform="matrix(0.9672 -0.2542 0.2542 0.9672 10.4898 312.4984)" class="st0" width="5.6" height="3"/>

			<rect x="1177.5" y="112.9" transform="matrix(0.2543 -0.9671 0.9671 0.2543 767.2585 1226.5128)" class="st3" width="3" height="5.6"/>

			<rect x="1212.9" y="122.2" transform="matrix(0.2541 -0.9672 0.9672 0.2541 784.929 1267.7661)" class="st3" width="3" height="5.6"/>
	</g>
	<polygon class="st0" points="1211,166.9 1208,166.9 1208,159.2 1200.2,159.2 1200.2,156.2 1211,156.2 	"/>
	<polygon class="st0" points="1185.4,166.9 1182.4,166.9 1182.4,156.2 1193.6,156.2 1193.6,159.2 1185.4,159.2 	"/>
	<polygon class="st0" points="1208,135.2 1200.2,135.2 1200.2,132.2 1205,132.2 1205,129 1188.4,129 1188.4,132.2 1193.6,132.2
		1193.6,135.2 1185.4,135.2 1185.4,126 1208,126 	"/>
	<g>

			<rect x="1203.8" y="133.6" transform="matrix(0.988 -0.1546 0.1546 0.988 -8.0548 188.0935)" class="st0" width="3" height="24.4"/>

			<rect x="1175.9" y="144.4" transform="matrix(0.1549 -0.9879 0.9879 0.1549 859.9799 1297.0312)" class="st0" width="24.4" height="3"/>
	</g>
	<path class="st0" d="M1204.6,129h-15.7v-15h15.7V129z M1191.8,126h9.7v-9h-9.7V126z"/>
	<path class="st0" d="M1208.7,117.1h-24l12-14.1L1208.7,117.1z M1191.2,114.1h11.1l-5.5-6.5L1191.2,114.1z"/>
	<rect x="1195.2" y="97" class="st0" width="3" height="8.3"/>
</g>
<g>
	<path class="st0" d="M1239.9,168.2l-1.7-2.5c11.3-7.8,24.9-12,39.3-12c14.3,0,27.8,4.1,39.1,11.9l-1.7,2.5
		c-10.8-7.4-23.7-11.3-37.4-11.3C1263.7,156.8,1250.7,160.7,1239.9,168.2z"/>
	<g>
		<polygon class="st0" points="1287.8,155.8 1284.8,155.8 1284.8,141.5 1277.4,135.6 1270,141.5 1270,155.8 1267,155.8 1267,140.1
			1277.4,131.7 1287.8,140.1 		"/>
		<rect x="1275.9" y="142.7" class="st3" width="3" height="8.1"/>
	</g>
	<g>
		<rect x="1294.8" y="121" class="st0" width="3" height="41.8"/>
		<path class="st0" d="M1318.1,136.2h-1.5c-3.6,0-6-0.6-8.3-1.2c-2.4-0.6-4.6-1.2-8.3-1.2v-3c4.1,0,6.6,0.7,9,1.3
			c1.9,0.5,3.7,1,6.1,1.1v-6.6c-2.9-0.1-4.9-0.7-6.9-1.2c-2.4-0.6-4.6-1.2-8.2-1.2v-3c4,0,6.6,0.7,9,1.3c2.2,0.6,4.3,1.1,7.6,1.1
			h1.5L1318.1,136.2L1318.1,136.2z"/>
		<circle class="st4" cx="1296.3" cy="116.1" r="2.1"/>
	</g>
</g>
<g>
	<rect x="746.8" y="37.3" class="st0" width="8.8" height="3"/>
	<rect x="779.9" y="37.3" class="st0" width="8.8" height="3"/>
	<rect x="766.3" y="50.9" class="st0" width="3" height="8.8"/>
	<rect x="766.3" y="17.8" class="st0" width="3" height="8.8"/>
	<rect x="754.6" y="22.7" transform="matrix(0.7071 -0.7071 0.7071 0.7071 202.3166 542.568)" class="st3" width="3" height="8.8"/>
	<rect x="778" y="46" transform="matrix(0.7071 -0.7071 0.7071 0.7071 192.6292 565.9466)" class="st0" width="3" height="8.8"/>

		<rect x="775.1" y="25.6" transform="matrix(0.7071 -0.7071 0.7071 0.7071 209.1674 559.1168)" class="st0" width="8.8" height="3"/>
	<rect x="751.7" y="49" transform="matrix(0.7071 -0.7071 0.7071 0.7071 185.7679 549.4188)" class="st3" width="8.8" height="3"/>
	<path class="st0" d="M767.8,48.4c-5.3,0-9.6-4.3-9.6-9.6s4.3-9.6,9.6-9.6s9.6,4.3,9.6,9.6S773,48.4,767.8,48.4z M767.8,32.2
		c-3.6,0-6.6,2.9-6.6,6.6s2.9,6.6,6.6,6.6s6.6-2.9,6.6-6.6S771.4,32.2,767.8,32.2z"/>
</g>
<g>
	<rect x="478.6" y="148.4" class="st0" width="7.2" height="3"/>
	<polygon class="st0" points="524.5,176.3 518.7,176.3 518.7,173.3 523,173.3 527.6,167.6 520,151.4 460.9,151.4 457.6,167.8
		459.2,173.3 475.7,173.3 475.7,176.3 457,176.3 454.5,167.9 458.4,148.4 521.9,148.4 531.1,168.1 	"/>
	<path class="st0" d="M523.2,165.2h-12.7v-11.7h7.2L523.2,165.2z M513.6,162.2h5l-2.6-5.7h-2.3v5.7H513.6z"/>
	<path class="st0" d="M482.7,180.5c-3.2,0-5.7-2.6-5.7-5.7s2.6-5.7,5.7-5.7c3.2,0,5.7,2.6,5.7,5.7c0,0.9-0.2,1.7-0.6,2.5
		C486.9,179.3,484.9,180.5,482.7,180.5z M482.7,172.1c-1.5,0-2.7,1.2-2.7,2.7s1.2,2.7,2.7,2.7c1,0,2-0.6,2.5-1.5
		c0.2-0.4,0.3-0.8,0.3-1.2C485.5,173.3,484.3,172.1,482.7,172.1z"/>
	<path class="st0" d="M512.2,180.5c-3.2,0-5.7-2.6-5.7-5.7s2.6-5.7,5.7-5.7c3.1,0,5.7,2.6,5.7,5.7c0,0.9-0.2,1.7-0.6,2.5
		C516.4,179.3,514.4,180.5,512.2,180.5z M512.2,172.1c-1.5,0-2.7,1.2-2.7,2.7s1.2,2.7,2.7,2.7c1,0,2-0.6,2.5-1.5
		c0.2-0.4,0.3-0.8,0.3-1.2C514.9,173.3,513.7,172.1,512.2,172.1z"/>
	<path class="st3" d="M480,162.5h-16.9v-8.9H480V162.5z M466.1,159.5H477v-2.9h-10.9V159.5z"/>
	<polygon class="st0" points="503.6,175.6 500.6,175.6 500.6,156.5 493.8,156.5 493.8,175.6 490.8,175.6 490.8,153.5 503.6,153.5
		"/>
</g>
<g>
	<g>
		<g>
			<rect x="190.1" y="142.6" class="st0" width="82.6" height="3"/>
			<g>
				<g>
					<polygon id="SVGID_1_" class="st0" points="307.2,155.4 304.2,155 305.3,145.6 278.5,145.6 278.5,142.6 308.6,142.6 					"/>
				</g>
				<g>
					<polygon id="SVGID_2_" class="st0" points="168.9,155.4 167.4,142.6 195.2,142.6 195.2,145.6 170.8,145.6 171.9,155 					"/>
				</g>
				<g>
					<defs>
						<polygon id="SVGID_3_" points="307.2,155.4 304.2,155 305.3,145.6 278.5,145.6 278.5,142.6 308.6,142.6 						"/>
					</defs>
					<clipPath id="SVGID_4_">
						<use xlink:href="#SVGID_3_"  style="overflow:visible;"/>
					</clipPath>
				</g>
			</g>
		</g>
	</g>
	<rect x="247.9" y="134.7" class="st0" width="34.9" height="3"/>
	<rect x="229" y="98" class="st0" width="3" height="14.4"/>
	<rect x="226.1" y="106.4" class="st0" width="8.8" height="3"/>
	<path class="st0" d="M180.7,119.4c-1.1-1.1-1.8-2.7-1.8-4.3c0-1.6,0.6-3.1,1.8-4.3l2.1,2.1c-0.6,0.6-0.9,1.3-0.9,2.2
		s0.3,1.6,0.9,2.2L180.7,119.4z"/>
	<path class="st0" d="M180.7,119.4c-1.2-1.2-3.2-1.2-4.3,0l-2.1-2.1c1.1-1.1,2.7-1.8,4.3-1.8s3.1,0.6,4.3,1.8L180.7,119.4z"/>
	<path class="st0" d="M91.9,41.4c-1-2-1.2-4.3-0.5-6.5s2.2-3.9,4.2-5l1.4,2.7c-1.3,0.7-2.3,1.8-2.8,3.2s-0.3,2.9,0.3,4.2L91.9,41.4z
		"/>
	<path class="st0" d="M91.9,41.4c-0.7-1.3-1.8-2.3-3.2-2.8c-1.4-0.5-2.9-0.3-4.2,0.3l-1.4-2.7c2-1,4.3-1.2,6.5-0.5s3.9,2.2,5,4.2
		L91.9,41.4z"/>
	<polygon class="st0" points="281.8,144.2 280.8,129.9 192.8,129.9 192,144.2 189,144 190,126.9 283.6,126.9 284.8,144 	"/>
	<polygon class="st0" points="224,128.4 221,128.4 221,110.9 242.9,110.9 242.9,124.7 239.9,124.7 239.9,113.9 224,113.9 	"/>
	<polygon class="st0" points="263.3,128.4 260.3,128.4 260.3,123.7 249.4,123.7 249.4,128.4 246.4,128.4 246.4,120.7 263.3,120.7
		"/>
	<rect x="226" y="134.3" class="st0" width="3" height="3.8"/>
	<rect x="236.6" y="134.3" class="st3" width="3" height="3.8"/>
	<rect x="227" y="116.7" class="st0" width="3" height="3.8"/>
	<rect x="233.9" y="116.7" class="st0" width="3" height="3.8"/>
	<rect x="198.7" y="134.3" class="st0" width="3" height="3.8"/>
	<rect x="207.6" y="134.3" class="st0" width="3" height="3.8"/>
	<rect x="216.4" y="134.3" class="st0" width="3" height="3.8"/>
</g>
<g>
	<path class="st0" d="M317.6,159.5c-3.7,0-5.6-1.3-7.3-2.4c-1.5-1-2.8-1.9-5.6-1.9c-2.8,0-4.1,0.9-5.6,1.9c-1.7,1.1-3.6,2.4-7.3,2.4
		c-3.7,0-5.6-1.3-7.3-2.4c-1.5-1-2.8-1.9-5.6-1.9c-2.8,0-4.1,0.9-5.6,1.9c-1.7,1.1-3.6,2.4-7.3,2.4s-5.6-1.3-7.3-2.4
		c-1.5-1-2.8-1.9-5.6-1.9s-4.1,0.9-5.6,1.9c-1.7,1.1-3.6,2.4-7.3,2.4s-5.6-1.3-7.3-2.4c-1.5-1-2.8-1.9-5.6-1.9v-3
		c3.7,0,5.6,1.3,7.3,2.4c1.5,1,2.8,1.9,5.6,1.9s4.1-0.9,5.6-1.9c1.7-1.1,3.6-2.4,7.3-2.4c3.7,0,5.6,1.3,7.3,2.4
		c1.5,1,2.8,1.9,5.6,1.9s4.1-0.9,5.6-1.9c1.7-1.1,3.6-2.4,7.3-2.4c3.7,0,5.6,1.3,7.3,2.4c1.5,1,2.8,1.9,5.6,1.9
		c2.8,0,4.1-0.9,5.6-1.9c1.7-1.1,3.6-2.4,7.3-2.4c3.7,0,5.6,1.3,7.3,2.4c1.5,1,2.8,1.9,5.6,1.9V159.5z"/>
	<path class="st0" d="M214.6,159.5c-3.7,0-5.6-1.3-7.3-2.4c-1.5-1-2.8-1.9-5.6-1.9s-4.1,0.9-5.6,1.9c-1.7,1.1-3.6,2.4-7.3,2.4
		s-5.6-1.3-7.3-2.4c-1.5-1-2.8-1.9-5.6-1.9s-4.1,0.9-5.6,1.9c-1.7,1.1-3.6,2.4-7.3,2.4s-5.6-1.3-7.3-2.4c-1.5-1-2.8-1.9-5.6-1.9v-3
		c3.7,0,5.6,1.3,7.3,2.4c1.5,1,2.8,1.9,5.6,1.9s4.1-0.9,5.6-1.9c1.7-1.1,3.6-2.4,7.3-2.4s5.6,1.3,7.3,2.4c1.5,1,2.8,1.9,5.6,1.9
		s4.1-0.9,5.6-1.9c1.7-1.1,3.6-2.4,7.3-2.4s5.6,1.3,7.3,2.4c1.5,1,2.8,1.9,5.6,1.9s4.1-0.9,5.6-1.9c1.7-1.1,3.6-2.4,7.3-2.4v3
		c-2.8,0-4.1,0.9-5.6,1.9C220.1,158.2,218.2,159.5,214.6,159.5z"/>
</g>
<g>
	<path class="st0" d="M1051.7,173.4c-6.1,0-11-5-11-11v-1.5h22.1v1.5C1062.7,168.5,1057.7,173.4,1051.7,173.4z M1043.8,163.9
		c0.7,3.7,4,6.5,7.9,6.5s7.2-2.8,7.9-6.5H1043.8z"/>
	<path class="st0" d="M1062.7,161.9h-3c0-3-2.1-5.6-5-6.3v6.3h-3v-9.5h1.5C1058.4,152.5,1062.7,156.7,1062.7,161.9z"/>

		<rect x="1038.7" y="157" transform="matrix(0.7071 -0.7071 0.7071 0.7071 191.4163 782.4267)" class="st0" width="3" height="6.3"/>
	<path class="st0" d="M1056.3,178.1c-2.3,0-4.2-1.9-4.2-4.2s1.9-4.2,4.2-4.2s4.2,1.9,4.2,4.2S1058.7,178.1,1056.3,178.1z
		 M1056.3,172.6c-0.7,0-1.2,0.6-1.2,1.2s0.6,1.2,1.2,1.2s1.2-0.6,1.2-1.2S1057,172.6,1056.3,172.6z"/>
	<path class="st0" d="M1046.8,178.1c-2.3,0-4.2-1.9-4.2-4.2s1.9-4.2,4.2-4.2s4.2,1.9,4.2,4.2S1049.2,178.1,1046.8,178.1z
		 M1046.8,172.6c-0.7,0-1.2,0.6-1.2,1.2s0.6,1.2,1.2,1.2s1.2-0.6,1.2-1.2S1047.5,172.6,1046.8,172.6z"/>
	<path class="st0" d="M1029.8,155.1c-3.1,0-5.8-2.3-6.2-5.5l0,0c-0.4-3.4,2-6.5,5.4-6.9c3.4-0.4,6.5,2,6.9,5.4s-2,6.5-5.4,6.9
		C1030.3,155,1030,155.1,1029.8,155.1z M1026.6,149.2c0.2,1.8,1.8,3,3.6,2.8c1.8-0.2,3-1.8,2.8-3.6s-1.8-3-3.6-2.8
		C1027.6,145.9,1026.4,147.5,1026.6,149.2L1026.6,149.2z"/>
	<polygon class="st0" points="1028.3,177.3 1023.9,177.3 1023.9,151.5 1026.9,151.5 1026.9,174.3 1028.3,174.3 	"/>
	<polygon class="st0" points="1033.6,177.3 1029.3,177.3 1029.3,153.6 1032.3,153.6 1032.3,174.3 1033.6,174.3 	"/>
	<path class="st0" d="M1024.2,166.3c-0.6-0.4-5.9-4.2-5.9-8.4c0-4.3,5.8-7.2,6.4-7.6l1.3,2.7c-1.2,0.6-4.8,2.8-4.8,4.8
		c0,2.2,3.4,5.1,4.6,5.9L1024.2,166.3z"/>
	<path class="st0" d="M1035.7,160.2c-0.8,0-1.5-0.1-2.3-0.4c-1.9-0.8-3.3-2.4-4.1-5l2.9-0.9c0.5,1.6,1.3,2.7,2.3,3.1
		c1.6,0.6,3.7-0.3,4.4-0.7l1.5,2.6C1040.3,159,1038.2,160.2,1035.7,160.2z"/>
</g>
<g>
	<rect x="968.9" y="155.1" class="st0" width="39" height="3"/>
	<rect x="968.9" y="160.9" class="st0" width="39" height="3"/>
	<rect x="965.5" y="166.2" class="st0" width="45.7" height="3"/>
	<rect x="973.3" y="156.6" class="st0" width="3" height="11.1"/>
	<rect x="1001.3" y="156.6" class="st0" width="3" height="11.1"/>
	<rect x="968" y="168.8" class="st0" width="3" height="6.6"/>
	<rect x="1006.4" y="168.8" class="st0" width="3" height="6.6"/>
</g>
<g>
	<rect x="767.2" y="133.1" class="st0" width="7" height="3"/>
	<rect x="712.8" y="133.1" class="st0" width="7" height="3"/>
	<rect x="749.1" y="142" class="st3" width="7" height="3"/>
	<g>
		<path class="st0" d="M740.7,122.2h-3c0-7-4.8-13.1-11.6-14.8l0.7-2.9C735,106.5,740.7,113.8,740.7,122.2z"/>
		<path class="st0" d="M724.5,107.1c-0.7-0.1-1.4-0.1-2.1-0.1v-3c0.8,0,1.7,0.1,2.5,0.2L724.5,107.1z"/>
		<path class="st0" d="M750.5,122.2h-3c0-6.1,3-11.7,8-15.1l1.7,2.5C753,112.4,750.5,117.1,750.5,122.2z"/>
		<rect x="742.6" y="96.1" class="st0" width="3" height="3.2"/>
		<rect x="742.6" y="100.8" class="st0" width="3" height="21.4"/>
		<path class="st0" d="M758.8,108.6l-1.4-2.7c2.6-1.3,5.5-2,8.4-2v3C763.4,106.9,761,107.5,758.8,108.6z"/>
		<polygon class="st0" points="761.6,137 726.6,137 726.6,130.1 729.6,130.1 729.6,134 758.6,134 758.6,125.5 762.2,125.5
			762.2,123.7 726.1,123.7 726.1,125.5 729.8,125.5 729.8,128.5 723.1,128.5 723.1,120.7 765.2,120.7 765.2,128.5 761.6,128.5 		"/>
		<rect x="731.4" y="130.1" class="st0" width="3" height="5.2"/>
		<rect x="739.2" y="130.1" class="st0" width="3" height="5.2"/>
		<rect x="747.1" y="130.1" class="st0" width="3" height="5.2"/>
		<rect x="753.9" y="130.1" class="st0" width="3" height="5.2"/>
	</g>
</g>
</svg>
